<?xml version="1.0" encoding="UTF-8" standalone="no"?>
<svg
   xmlns:dc="http://purl.org/dc/elements/1.1/"
   xmlns:cc="http://creativecommons.org/ns#"
   xmlns:rdf="http://www.w3.org/1999/02/22-rdf-syntax-ns#"
   xmlns:svg="http://www.w3.org/2000/svg"
   xmlns="http://www.w3.org/2000/svg"
   xmlns:sodipodi="http://sodipodi.sourceforge.net/DTD/sodipodi-0.dtd"
   xmlns:inkscape="http://www.inkscape.org/namespaces/inkscape"
   width="400"
   height="400"
   viewBox="0 0 400 400"
   version="1.1"
   id="svg16"
   sodipodi:docname="database.svg"
   inkscape:version="1.0.2 (1.0.2+r75+1)">
  <metadata
     id="metadata20">
    <rdf:RDF>
      <cc:Work
         rdf:about="">
        <dc:format>image/svg+xml</dc:format>
        <dc:type
           rdf:resource="http://purl.org/dc/dcmitype/StillImage" />
        <dc:title>Icon-Architecture-Category/64/Database_64</dc:title>
      </cc:Work>
    </rdf:RDF>
  </metadata>
  <sodipodi:namedview
     pagecolor="#ffffff"
     bordercolor="#666666"
     borderopacity="1"
     objecttolerance="10"
     gridtolerance="10"
     guidetolerance="10"
     inkscape:pageopacity="0"
     inkscape:pageshadow="2"
     inkscape:window-width="1920"
     inkscape:window-height="977"
     id="namedview18"
     showgrid="false"
     inkscape:zoom="1.955"
     inkscape:cx="200"
     inkscape:cy="200"
     inkscape:window-x="0"
     inkscape:window-y="34"
     inkscape:window-maximized="1"
     inkscape:current-layer="svg16"
     inkscape:document-rotation="0" />
  <title
     id="title2">Icon-Architecture-Category/64/Database_64</title>
  <defs
     id="defs9">
    <linearGradient
       x1="4"
       y1="84"
       x2="84"
       y2="4"
       id="linearGradient-1"
       gradientUnits="userSpaceOnUse">
      <stop
         stop-color="#2E27AD"
         offset="0%"
         id="stop4" />
      <stop
         stop-color="#527FFF"
         offset="100%"
         id="stop6" />
    </linearGradient>
  </defs>
  <g
     id="Icon-Category/64/Database_64"
     transform="matrix(5.2631579,0,0,5.2631579,31.578947,31.578947)"
     fill="#ffffff"
     style="fill:#252f3e;fill-opacity:1;fill-rule:evenodd;stroke:none;stroke-width:1">
    <path
       d="m 32,31.982 c -10.019,0 -17,-3.16 -17,-5.996 V 15.667 c 3.057,2.608 9.357,4.324 17,4.324 7.643,0 13.943,-1.716 17,-4.324 v 10.319 c 0,2.836 -6.981,5.996 -17,5.996 m 0,13.745 c -10.019,0 -17,-3.16 -17,-5.995 V 29.658 c 3.057,2.609 9.357,4.324 17,4.324 7.643,0 13.943,-1.715 17,-4.324 v 10.074 c 0,2.835 -6.981,5.995 -17,5.995 M 32,58 C 21.981,58 15,54.84 15,52.004 v -8.601 c 3.057,2.609 9.357,4.324 17,4.324 7.643,0 13.943,-1.715 17,-4.324 v 8.601 C 49,54.84 42.019,58 32,58 M 32,6 c 10.019,0 17,3.16 17,5.996 0,2.835 -6.981,5.995 -17,5.995 -10.019,0 -17,-3.16 -17,-5.995 C 15,9.16 21.981,6 32,6 M 32,4 C 21.168,4 13,7.438 13,11.996 V 52.004 C 13,56.563 21.168,60 32,60 42.832,60 51,56.563 51,52.004 V 11.996 C 51,7.438 42.832,4 32,4"
       id="Database_Category-Icon_64_Squid--"
       style="fill:#252f3e;fill-opacity:1" />
  </g>
</svg>
